<svg width="60" height="60" viewBox="0 0 60 60" fill="none" xmlns="http://www.w3.org/2000/svg">
<path d="M12.5 12.5H27.5C28.875 12.5 30 11.375 30 10C30 8.625 28.875 7.5 27.5 7.5H12.5C9.75 7.5 7.5 9.75 7.5 12.5V47.5C7.5 50.25 9.75 52.5 12.5 52.5H27.5C28.875 52.5 30 51.375 30 50C30 48.625 28.875 47.5 27.5 47.5H12.5V12.5Z" fill="black"/>
<path d="M51.625 29.125L44.65 22.15C44.4761 21.9714 44.2529 21.8487 44.0089 21.7977C43.7649 21.7466 43.5112 21.7696 43.2804 21.8635C43.0495 21.9575 42.8519 22.1182 42.7129 22.3251C42.5738 22.532 42.4997 22.7757 42.5 23.025V27.5H25C23.625 27.5 22.5 28.625 22.5 30C22.5 31.375 23.625 32.5 25 32.5H42.5V36.975C42.5 38.1 43.85 38.65 44.625 37.85L51.6 30.875C52.1 30.4 52.1 29.6 51.625 29.125Z" fill="black"/>
</svg>
